mtllib ./MEJA.mtl
g Cube
v 10.72614 0.1522364 2.205954
v 10.72614 8.851236 2.205954
v 11.39314 8.851236 2.205954
v 11.39314 0.1522364 2.205954
v 10.72614 8.851236 2.205954
v 10.86814 8.851236 1.452954
v 11.53514 8.851236 1.452954
v 11.39314 8.851236 2.205954
v 10.86814 8.851236 1.452954
v 10.86814 0.1522364 1.452954
v 11.53514 0.1522364 1.452954
v 11.53514 8.851236 1.452954
v 10.86814 0.1522364 1.452954
v 10.72614 0.1522364 2.205954
v 11.39314 0.1522364 2.205954
v 11.53514 0.1522364 1.452954
v 11.39314 0.1522364 2.205954
v 11.39314 8.851236 2.205954
v 11.53514 8.851236 1.452954
v 11.53514 0.1522364 1.452954
v 10.86814 0.1522364 1.452954
v 10.86814 8.851236 1.452954
v 10.72614 8.851236 2.205954
v 10.72614 0.1522364 2.205954

vn 0 0 1
vn 0 0 1
vn 0 0 1
vn 0 0 1
vn 0 1 0
vn 0 1 0
vn 0 1 0
vn 0 1 0
vn 0 0 -1
vn 0 0 -1
vn 0 0 -1
vn 0 0 -1
vn 0 -1 0
vn 0 -1 0
vn 0 -1 0
vn 0 -1 0
vn 0.9826797 0 0.1853124
vn 0.9826797 0 0.1853124
vn 0.9826797 0 0.1853124
vn 0.9826797 0 0.1853124
vn -0.9826796 0 -0.1853128
vn -0.9826796 0 -0.1853128
vn -0.9826796 0 -0.1853128
vn -0.9826796 0 -0.1853128

vt 0 0
vt 0 1
vt 1 1
vt 1 0
vt 0 0
vt 0 1
vt 1 1
vt 1 0
vt 0 0
vt 0 1
vt 1 1
vt 1 0
vt 0 0
vt 0 1
vt 1 1
vt 1 0
vt 0 0
vt 0 1
vt 1 1
vt 1 0
vt 0 0
vt 0 1
vt 1 1
vt 1 0

usemtl Standard(Clone)
usemap Standard(Clone)
f 2/2/2 1/1/1 3/3/3
f 1/1/1 4/4/4 3/3/3
f 6/6/6 5/5/5 7/7/7
f 5/5/5 8/8/8 7/7/7
f 10/10/10 9/9/9 11/11/11
f 9/9/9 12/12/12 11/11/11
f 14/14/14 13/13/13 15/15/15
f 13/13/13 16/16/16 15/15/15
f 18/18/18 17/17/17 19/19/19
f 17/17/17 20/20/20 19/19/19
f 22/22/22 21/21/21 23/23/23
f 21/21/21 24/24/24 23/23/23
g Cube
v 11.02863 0.4479989 29.50001
v 11.02863 8.863998 29.50001
v 11.62763 8.863998 29.50001
v 11.62763 0.4479989 29.50001
v 11.02863 8.863998 29.50001
v 11.03663 8.863998 29.00501
v 11.63563 8.863998 29.00501
v 11.62763 8.863998 29.50001
v 11.03663 8.863998 29.00501
v 11.03663 0.4479989 29.00501
v 11.63563 0.4479989 29.00501
v 11.63563 8.863998 29.00501
v 11.03663 0.4479989 29.00501
v 11.02863 0.4479989 29.50001
v 11.62763 0.4479989 29.50001
v 11.63563 0.4479989 29.00501
v 11.03663 0.4479989 29.00501
v 11.03663 8.863998 29.00501
v 11.02863 8.863998 29.50001
v 11.02863 0.4479989 29.50001

vn 0 0 1
vn 0 0 1
vn 0 0 1
vn 0 0 1
vn 0 1 0
vn 0 1 0
vn 0 1 0
vn 0 1 0
vn 0 0 -1
vn 0 0 -1
vn 0 0 -1
vn 0 0 -1
vn 0 -1 0
vn 0 -1 0
vn 0 -1 0
vn 0 -1 0
vn -0.9998695 0 -0.01615978
vn -0.9998695 0 -0.01615978
vn -0.9998695 0 -0.01615978
vn -0.9998695 0 -0.01615978

vt 0 0
vt 0 1
vt 1 1
vt 1 0
vt 0 0
vt 0 1
vt 1 1
vt 1 0
vt 0 0
vt 0 1
vt 1 1
vt 1 0
vt 0 0
vt 0 1
vt 1 1
vt 1 0
vt 0 0
vt 0 1
vt 1 1
vt 1 0

usemtl Standard(Clone)
usemap Standard(Clone)
f 26/26/26 25/25/25 27/27/27
f 25/25/25 28/28/28 27/27/27
f 30/30/30 29/29/29 31/31/31
f 29/29/29 32/32/32 31/31/31
f 34/34/34 33/33/33 35/35/35
f 33/33/33 36/36/36 35/35/35
f 38/38/38 37/37/37 39/39/39
f 37/37/37 40/40/40 39/39/39
f 42/42/42 41/41/41 43/43/43
f 41/41/41 44/44/44 43/43/43
g Cube
v -4.651304 0.4010082 2.532378
v -4.651304 8.783008 2.532378
v -3.826304 8.783008 2.532378
v -3.826304 0.4010082 2.532378
v -4.651304 8.783008 2.532378
v -4.651304 8.783008 1.795378
v -3.826304 8.783008 1.795378
v -3.826304 8.783008 2.532378
v -4.651304 8.783008 1.795378
v -4.651304 0.4010082 1.795378
v -3.826304 0.4010082 1.795378
v -3.826304 8.783008 1.795378
v -4.651304 0.4010082 1.795378
v -4.651304 0.4010082 2.532378
v -3.826304 0.4010082 2.532378
v -3.826304 0.4010082 1.795378
v -3.826304 0.4010082 2.532378
v -3.826304 8.783008 2.532378
v -3.826304 8.783008 1.795378
v -3.826304 0.4010082 1.795378
v -4.651304 0.4010082 1.795378
v -4.651304 8.783008 1.795378
v -4.651304 8.783008 2.532378
v -4.651304 0.4010082 2.532378

vn 0 0 1
vn 0 0 1
vn 0 0 1
vn 0 0 1
vn 0 1 0
vn 0 1 0
vn 0 1 0
vn 0 1 0
vn 0 0 -1
vn 0 0 -1
vn 0 0 -1
vn 0 0 -1
vn 0 -1 0
vn 0 -1 0
vn 0 -1 0
vn 0 -1 0
vn 1 0 0
vn 1 0 0
vn 1 0 0
vn 1 0 0
vn -1 0 0
vn -1 0 0
vn -1 0 0
vn -1 0 0

vt 0 0
vt 0 1
vt 1 1
vt 1 0
vt 0 0
vt 0 1
vt 1 1
vt 1 0
vt 0 0
vt 0 1
vt 1 1
vt 1 0
vt 0 0
vt 0 1
vt 1 1
vt 1 0
vt 0 0
vt 0 1
vt 1 1
vt 1 0
vt 0 0
vt 0 1
vt 1 1
vt 1 0

usemtl Standard(Clone)
usemap Standard(Clone)
f 46/46/46 45/45/45 47/47/47
f 45/45/45 48/48/48 47/47/47
f 50/50/50 49/49/49 51/51/51
f 49/49/49 52/52/52 51/51/51
f 54/54/54 53/53/53 55/55/55
f 53/53/53 56/56/56 55/55/55
f 58/58/58 57/57/57 59/59/59
f 57/57/57 60/60/60 59/59/59
f 62/62/62 61/61/61 63/63/63
f 61/61/61 64/64/64 63/63/63
f 66/66/66 65/65/65 67/67/67
f 65/65/65 68/68/68 67/67/67
g Cube
v -4.963636 0.2464008 29.47211
v -4.963636 8.661402 29.47211
v -4.409636 8.661402 29.5181
v -4.409636 0.2464008 29.5181
v -4.963636 8.661402 29.47211
v -5.058636 8.661402 28.77411
v -4.504636 8.661402 28.8201
v -4.409636 8.661402 29.5181
v -5.058636 8.661402 28.77411
v -5.058636 0.2464008 28.77411
v -4.504636 0.2464008 28.8201
v -4.504636 8.661402 28.8201
v -5.058636 0.2464008 28.77411
v -4.963636 0.2464008 29.47211
v -4.409636 0.2464008 29.5181
v -4.504636 0.2464008 28.8201
v -4.409636 0.2464008 29.5181
v -4.409636 8.661402 29.5181
v -4.504636 8.661402 28.8201
v -4.504636 0.2464008 28.8201
v -5.058636 0.2464008 28.77411
v -5.058636 8.661402 28.77411
v -4.963636 8.661402 29.47211
v -4.963636 0.2464008 29.47211

vn -0.08274751 0 0.9965706
vn -0.08274751 0 0.9965706
vn -0.08274751 0 0.9965706
vn -0.08274751 0 0.9965706
vn 0 1 0
vn 0 1 0
vn 0 1 0
vn 0 1 0
vn 0.08274805 0 -0.9965705
vn 0.08274805 0 -0.9965705
vn 0.08274805 0 -0.9965705
vn 0.08274805 0 -0.9965705
vn 0 -1 0
vn 0 -1 0
vn 0 -1 0
vn 0 -1 0
vn 0.9908646 0 -0.1348602
vn 0.9908646 0 -0.1348602
vn 0.9908646 0 -0.1348602
vn 0.9908646 0 -0.1348602
vn -0.9908647 0 0.1348602
vn -0.9908647 0 0.1348602
vn -0.9908647 0 0.1348602
vn -0.9908647 0 0.1348602

vt 0 0
vt 0 1
vt 1 1
vt 1 0
vt 0 0
vt 0 1
vt 1 1
vt 1 0
vt 0 0
vt 0 1
vt 1 1
vt 1 0
vt 0 0
vt 0 1
vt 1 1
vt 1 0
vt 0 0
vt 0 1
vt 1 1
vt 1 0
vt 0 0
vt 0 1
vt 1 1
vt 1 0

usemtl Standard(Clone)
usemap Standard(Clone)
f 70/70/70 69/69/69 71/71/71
f 69/69/69 72/72/72 71/71/71
f 74/74/74 73/73/73 75/75/75
f 73/73/73 76/76/76 75/75/75
f 78/78/78 77/77/77 79/79/79
f 77/77/77 80/80/80 79/79/79
f 82/82/82 81/81/81 83/83/83
f 81/81/81 84/84/84 83/83/83
f 86/86/86 85/85/85 87/87/87
f 85/85/85 88/88/88 87/87/87
f 90/90/90 89/89/89 91/91/91
f 89/89/89 92/92/92 91/91/91
g Cube
v -5.101197 8.20613 29.75627
v -5.101197 8.867129 29.75627
v 11.9568 8.867129 29.75627
v 11.9568 8.20613 29.75627
v -5.101197 8.867129 29.75627
v -5.101197 8.867129 0.8582675
v 11.9568 8.867129 0.8582675
v 11.9568 8.867129 29.75627
v -5.101197 8.867129 0.8582675
v -5.101197 8.20613 0.8582675
v 11.9568 8.20613 0.8582675
v 11.9568 8.867129 0.8582675
v -5.101197 8.20613 0.8582675
v -5.101197 8.20613 29.75627
v 11.9568 8.20613 29.75627
v 11.9568 8.20613 0.8582675
v 11.9568 8.20613 29.75627
v 11.9568 8.867129 29.75627
v 11.9568 8.867129 0.8582675
v 11.9568 8.20613 0.8582675
v -5.101197 8.20613 0.8582675
v -5.101197 8.867129 0.8582675
v -5.101197 8.867129 29.75627
v -5.101197 8.20613 29.75627

vn 0 0 1
vn 0 0 1
vn 0 0 1
vn 0 0 1
vn 0 1 0
vn 0 1 0
vn 0 1 0
vn 0 1 0
vn 0 0 -1
vn 0 0 -1
vn 0 0 -1
vn 0 0 -1
vn 0 -1 0
vn 0 -1 0
vn 0 -1 0
vn 0 -1 0
vn 1 0 0
vn 1 0 0
vn 1 0 0
vn 1 0 0
vn -1 0 0
vn -1 0 0
vn -1 0 0
vn -1 0 0

vt 0 0
vt 0 1
vt 1 1
vt 1 0
vt 0 0
vt 0 1
vt 1 1
vt 1 0
vt 0 0
vt 0 1
vt 1 1
vt 1 0
vt 0 0
vt 0 1
vt 1 1
vt 1 0
vt 0 0
vt 0 1
vt 1 1
vt 1 0
vt 0 0
vt 0 1
vt 1 1
vt 1 0

usemtl Standard(Clone)
usemap Standard(Clone)
f 94/94/94 93/93/93 95/95/95
f 93/93/93 96/96/96 95/95/95
f 98/98/98 97/97/97 99/99/99
f 97/97/97 100/100/100 99/99/99
f 102/102/102 101/101/101 103/103/103
f 101/101/101 104/104/104 103/103/103
f 106/106/106 105/105/105 107/107/107
f 105/105/105 108/108/108 107/107/107
f 110/110/110 109/109/109 111/111/111
f 109/109/109 112/112/112 111/111/111
f 114/114/114 113/113/113 115/115/115
f 113/113/113 116/116/116 115/115/115
